<svg width="34" height="34" viewBox="0 0 34 34" fill="none" xmlns="http://www.w3.org/2000/svg">
<g id="profile_pic">
<rect id="Rectangle 7" x="0.0761719" y="0.0761719" width="33.8462" height="33.8462" rx="16.9231" fill="#7A7AFF"/>
<g id="person">
<mask id="mask0_1708_13934" style="mask-type:alpha" maskUnits="userSpaceOnUse" x="7" y="7" width="20" height="20">
<rect id="Bounding box" x="7.76807" y="7.76758" width="18.4615" height="18.4615" fill="#D9D9D9"/>
</mask>
<g mask="url(#mask0_1708_13934)">
<path id="person_2" d="M16.9991 16.9976C16.1529 16.9976 15.4285 16.6963 14.826 16.0938C14.2234 15.4912 13.9221 14.7668 13.9221 13.9207C13.9221 13.0745 14.2234 12.3502 14.826 11.7476C15.4285 11.145 16.1529 10.8438 16.9991 10.8438C17.8452 10.8438 18.5696 11.145 19.1721 11.7476C19.7747 12.3502 20.076 13.0745 20.076 13.9207C20.076 14.7668 19.7747 15.4912 19.1721 16.0938C18.5696 16.6963 17.8452 16.9976 16.9991 16.9976ZM10.8452 23.1514V20.9976C10.8452 20.5617 10.9574 20.1611 11.1818 19.7957C11.4061 19.4303 11.7042 19.1514 12.076 18.9591C12.8709 18.5617 13.6785 18.2636 14.4991 18.0649C15.3196 17.8662 16.1529 17.7668 16.9991 17.7668C17.8452 17.7668 18.6785 17.8662 19.4991 18.0649C20.3196 18.2636 21.1273 18.5617 21.9221 18.9591C22.2939 19.1514 22.592 19.4303 22.8164 19.7957C23.0407 20.1611 23.1529 20.5617 23.1529 20.9976V23.1514H10.8452Z" fill="white"/>
</g>
</g>
</g>
</svg>
